<svg xmlns="http://www.w3.org/2000/svg" viewBox="0 0 64 64">
  <defs>
    <linearGradient id="bg" x1="0" y1="0" x2="1" y2="1">
      <stop offset="0" stop-color="#0b2a5b"/>
      <stop offset="1" stop-color="#0e5f7a"/>
    </linearGradient>
    <!-- Belgeyi oluşturan nokta ızgarası -->
    <pattern id="dots" width="3.2" height="3.2" patternUnits="userSpaceOnUse">
      <circle cx="1.6" cy="1.6" r="1.1" fill="#fff"/>
    </pattern>
    <pattern id="dotsBack" width="3.2" height="3.2" patternUnits="userSpaceOnUse">
      <circle cx="1.6" cy="1.6" r="0.9" fill="#9fd8e6"/>
    </pattern>
  </defs>
  <rect width="64" height="64" rx="14" fill="url(#bg)"/>
  <!-- Arka sayfa -->
  <path d="M22 21h14l7 7v23a2.5 2.5 0 0 1-2.5 2.5h-18.5a2.5 2.5 0 0 1-2.5-2.5v-27.5a2.5 2.5 0 0 1 2.5-2.5z" fill="url(#dotsBack)" opacity=".5"/>
  <!-- Ön sayfa: noktalardan oluşur -->
  <path d="M28 15h14l8 8v26.5a2.5 2.5 0 0 1-2.5 2.5h-19.5a2.5 2.5 0 0 1-2.5-2.5v-32a2.5 2.5 0 0 1 2.5-2.5z" fill="url(#dots)" opacity=".9"/>
  <path d="M42 15v5.5a2.5 2.5 0 0 0 2.5 2.5h5.5z" fill="#cfe3f0" opacity=".55"/>
  <!-- Ay yıldız rozeti (sol üst) -->
  <circle cx="16" cy="16" r="8.5" fill="#e30a17" stroke="#fff" stroke-width="2"/>
  <circle cx="14.2" cy="16" r="4.3" fill="#fff"/>
  <circle cx="15.3" cy="16" r="3.45" fill="#e30a17"/>
  <path d="M20.4 16l-2.4.78 1.48-2.03v2.5l-1.48-2.03z" fill="#fff"/>
</svg>
